<?xml version="1.0" ?>
<!-- Uploaded to: SVG Repo, www.svgrepo.com, Generator: SVG Repo Mixer Tools -->
<svg fill="#000000" width="800px" height="800px" viewBox="0 0 32 32" xmlns="http://www.w3.org/2000/svg">
<g data-name="people" id="people-8">
<polygon points="17.67 22.23 18.44 23 13.79 23 14.56 22.23 13.15 20.82 9.96 24 13.15 27.18 14.56 25.77 13.79 25 18.44 25 17.67 25.77 19.08 27.18 22.27 24 19.08 20.82 17.67 22.23"/>
<circle cx="25.89" cy="8.93" r="1.93"/>
<path d="M10.34,17.57V14.16a2.82,2.82,0,0,0-2.93-2.71H4.82a2.82,2.82,0,0,0-2.93,2.71v3.41a2.13,2.13,0,0,0,1.29,1.92v4.16a1.71,1.71,0,0,0,1.64,1.77H7.41a1.71,1.71,0,0,0,1.64-1.77V19.49A2.13,2.13,0,0,0,10.34,17.57ZM7.05,23.42H5.18V17.71h-1c-.2,0-.29-.11-.29-.14V14.16c0-.39.43-.71.93-.71H7.41c.5,0,.93.32.93.71v3.41s-.09.14-.29.14h-1v5.71Z"/>
<circle cx="5.89" cy="8.93" r="1.93"/>
<path d="M27.18,11.45H24.59a2.82,2.82,0,0,0-2.93,2.71v3.41A2.13,2.13,0,0,0,23,19.49v4.16a1.71,1.71,0,0,0,1.64,1.77h2.59a1.71,1.71,0,0,0,1.64-1.77V19.49a2.13,2.13,0,0,0,1.29-1.92V14.16A2.82,2.82,0,0,0,27.18,11.45Zm-.36,12H25V17.71H24c-.2,0-.29-.11-.29-.14V14.16c0-.39.43-.71.93-.71h2.59c.5,0,.93.32.93.71v3.41s-.09.14-.29.14h-1v5.71Z"/>
</g>
</svg>